# xmcd CD database file
#
# Track frame offsets:
#	150
#	6888
#	25837
#	48279
#	63934
#	89608
#	113735
#	137936
#	163631
#	173281
#	196549
#	214694
#
# Disc length: 3101 seconds
#
# Revision: 0
# Processed by: cddbd v1.4PL0 Copyright (c) Steve Scherf et al.
# Submitted via: CDex 1.40Release
#
DISCID=920c1b0c
DTITLE=The Broke - UNDERtheNEATH
DYEAR=2003
DGENRE=Blues
TTITLE0=Rainbow Sands
TTITLE1=Tinker
TTITLE2=Madame Moccoco
TTITLE3=Sangvine Slide
TTITLE4=Whole Box and Dice
TTITLE5=Sweeten the Pot
TTITLE6=Black Shoes, Blue Dress, My Love
TTITLE7=By the Skin of Your Horns
TTITLE8=Old Children
TTITLE9=Bermuda Ride
TTITLE10=Tab Yellow
TTITLE11=Swing Rope
EXTD=YEAR: 2003 ID3G: 0
EXTT0=
EXTT1=
EXTT2=
EXTT3=
EXTT4=
EXTT5=
EXTT6=
EXTT7=
EXTT8=
EXTT9=
EXTT10=
EXTT11=
PLAYORDER=
